# xmcd
#
# Track frame offsets:
#	183
#	21513
#	37923
#	54325
#	67223
#	106095
#	136735
#	154948
#	177323
#
# Disc length: 2548 seconds
#
# Revision: 20
# Processed by: cddbd v1.5.2PL0 Copyright (c) Steve Scherf et al.
# Submitted via: Jack! The Knife 20 Magnifico
#
DISCID=7409f209
DTITLE=Judas Priest - Devil's Spine [CD 1)
DYEAR=1982
DGENRE=Metal
TTITLE0=Solar Angel
TTITLE1=Heading Out The Highway
TTITLE2=Diamonds and Rust
TTITLE3=Hell Bent For Leather
TTITLE4=Sinner
TTITLE5=Beyond The Realms Of Death
TTITLE6=Grinder
TTITLE7=Desert Plains
TTITLE8=Hot Rocking
EXTD=
EXTT0=Tipton, Halford, Downing
EXTT1=Tipton, Halford, Downing
EXTT2=Joan Baez
EXTT3=Tipton, Halford, Downing
EXTT4=Tipton, Halford
EXTT5=Binks, Halford
EXTT6=Tipton, Halford, Downing
EXTT7=Tipton, Halford, Downing
EXTT8=Tipton, Halford, Downing
PLAYORDER=
